<svg width="24" height="24" viewBox="0 0 24 24" fill="none" xmlns="http://www.w3.org/2000/svg">
<path d="M11.9999 2C10.2458 2 8.78514 3.31071 8.53998 5H5.11908C5.0765 4.99271 5.03337 4.98912 4.99017 4.98926C4.95285 4.99006 4.91563 4.99365 4.87884 5H3.24994C2.97946 4.99617 2.72788 5.13828 2.59152 5.3719C2.45517 5.60553 2.45517 5.89447 2.59152 6.12809C2.72788 6.36172 2.97946 6.50382 3.24994 6.5H4.31927L5.57806 19.5146C5.7136 20.918 6.90583 22 8.31537 22H15.6835C17.0931 22 18.2853 20.9181 18.4208 19.5146L19.6806 6.5H20.7499C21.0204 6.50382 21.272 6.36172 21.4083 6.12809C21.5447 5.89447 21.5447 5.60552 21.4083 5.3719C21.272 5.13828 21.0204 4.99617 20.7499 5H19.122C19.0424 4.98709 18.9613 4.98709 18.8818 5H15.4599C15.2147 3.31071 13.7541 2 11.9999 2ZM11.9999 3.5C12.9395 3.5 13.7103 4.13408 13.9306 5H10.0693C10.2895 4.13408 11.0604 3.5 11.9999 3.5ZM5.82513 6.5H18.1738L16.9277 19.3701C16.8651 20.0177 16.3339 20.5 15.6835 20.5H8.31537C7.66591 20.5 7.13369 20.0168 7.07123 19.3701L5.82513 6.5ZM10.2382 8.98926C9.82438 8.99572 9.494 9.33616 9.49993 9.75V17.25C9.49611 17.5205 9.63822 17.7721 9.87184 17.9084C10.1055 18.0448 10.3944 18.0448 10.628 17.9084C10.8617 17.7721 11.0038 17.5205 10.9999 17.25V9.75C11.0028 9.54719 10.9235 9.35185 10.78 9.20852C10.6365 9.06519 10.441 8.98609 10.2382 8.98926ZM13.7382 8.98926C13.3244 8.99572 12.994 9.33616 12.9999 9.75V17.25C12.9961 17.5205 13.1382 17.7721 13.3718 17.9084C13.6055 18.0448 13.8944 18.0448 14.128 17.9084C14.3617 17.7721 14.5038 17.5205 14.4999 17.25V9.75C14.5028 9.54719 14.4235 9.35185 14.28 9.20852C14.1365 9.06519 13.941 8.98609 13.7382 8.98926Z" fill="black"/>
</svg>
